<mxfile host="65bd71144e">
    <diagram id="qbMIoLPfNxgFDg0dWaAc" name="Page-1">
        <mxGraphModel dx="716" dy="464" grid="1" gridSize="10" guides="1" tooltips="1" connect="1" arrows="1" fold="1" page="1" pageScale="1" pageWidth="850" pageHeight="1100" math="0" shadow="0">
            <root>
                <mxCell id="0"/>
                <mxCell id="1" parent="0"/>
                <mxCell id="2" value="Out Of Gumballs" style="ellipse;whiteSpace=wrap;html=1;aspect=fixed;" parent="1" vertex="1">
                    <mxGeometry x="100" y="320" width="80" height="80" as="geometry"/>
                </mxCell>
                <mxCell id="10" value="Eject Quarter" style="edgeStyle=orthogonalEdgeStyle;html=1;exitX=0.5;exitY=1;exitDx=0;exitDy=0;entryX=1;entryY=0.5;entryDx=0;entryDy=0;" parent="1" source="3" target="4" edge="1">
                    <mxGeometry relative="1" as="geometry"/>
                </mxCell>
                <mxCell id="11" value="Turns Crank" style="edgeStyle=orthogonalEdgeStyle;html=1;exitX=1;exitY=0.5;exitDx=0;exitDy=0;entryX=1;entryY=0.5;entryDx=0;entryDy=0;" parent="1" source="3" target="5" edge="1">
                    <mxGeometry relative="1" as="geometry">
                        <Array as="points">
                            <mxPoint x="620" y="120"/>
                            <mxPoint x="620" y="360"/>
                        </Array>
                    </mxGeometry>
                </mxCell>
                <mxCell id="3" value="Has Quarter" style="ellipse;whiteSpace=wrap;html=1;aspect=fixed;" parent="1" vertex="1">
                    <mxGeometry x="500" y="80" width="80" height="80" as="geometry"/>
                </mxCell>
                <mxCell id="9" value="Insert Quarter" style="edgeStyle=orthogonalEdgeStyle;html=1;exitX=0.5;exitY=0;exitDx=0;exitDy=0;entryX=0;entryY=0.5;entryDx=0;entryDy=0;" parent="1" source="4" target="3" edge="1">
                    <mxGeometry relative="1" as="geometry"/>
                </mxCell>
                <mxCell id="4" value="No Quarter" style="ellipse;whiteSpace=wrap;html=1;aspect=fixed;" parent="1" vertex="1">
                    <mxGeometry x="280" y="160" width="80" height="80" as="geometry"/>
                </mxCell>
                <mxCell id="13" value="Dispense Gumball" style="edgeStyle=orthogonalEdgeStyle;html=1;" parent="1" source="5" target="12" edge="1">
                    <mxGeometry relative="1" as="geometry"/>
                </mxCell>
                <mxCell id="5" value="Gumball Sold&lt;br&gt;&lt;i&gt;SoldState&lt;/i&gt;" style="ellipse;whiteSpace=wrap;html=1;aspect=fixed;" parent="1" vertex="1">
                    <mxGeometry x="500" y="320" width="80" height="80" as="geometry"/>
                </mxCell>
                <mxCell id="14" value="False" style="edgeStyle=orthogonalEdgeStyle;html=1;" parent="1" source="12" target="2" edge="1">
                    <mxGeometry relative="1" as="geometry">
                        <Array as="points">
                            <mxPoint x="230" y="360"/>
                            <mxPoint x="230" y="360"/>
                        </Array>
                    </mxGeometry>
                </mxCell>
                <mxCell id="15" value="True" style="edgeStyle=orthogonalEdgeStyle;html=1;" parent="1" source="12" target="4" edge="1">
                    <mxGeometry relative="1" as="geometry"/>
                </mxCell>
                <mxCell id="12" value="Gumballs &amp;gt;0" style="rhombus;whiteSpace=wrap;html=1;" parent="1" vertex="1">
                    <mxGeometry x="280" y="320" width="80" height="80" as="geometry"/>
                </mxCell>
                <mxCell id="16" value="Initiate" style="endArrow=classic;html=1;" parent="1" edge="1">
                    <mxGeometry width="50" height="50" relative="1" as="geometry">
                        <mxPoint x="200" y="199.5" as="sourcePoint"/>
                        <mxPoint x="280" y="199.5" as="targetPoint"/>
                    </mxGeometry>
                </mxCell>
                <mxCell id="17" value="&lt;i&gt;State&lt;/i&gt;" style="text;html=1;strokeColor=none;fillColor=none;align=center;verticalAlign=middle;whiteSpace=wrap;rounded=0;fontColor=#cc1e1e;" vertex="1" parent="1">
                    <mxGeometry x="290" y="160" width="60" height="30" as="geometry"/>
                </mxCell>
                <mxCell id="19" value="&lt;i&gt;Action&lt;/i&gt;" style="text;html=1;strokeColor=none;fillColor=none;align=center;verticalAlign=middle;whiteSpace=wrap;rounded=0;fontColor=#cc1e1e;" vertex="1" parent="1">
                    <mxGeometry x="360" y="80" width="60" height="30" as="geometry"/>
                </mxCell>
            </root>
        </mxGraphModel>
    </diagram>
</mxfile>